; OM File Header - Saved 2021/07/23 1:59:56
; (6.18 :patc (om-make-point 918 94) (om-make-point 50 50) (om-make-point 1102 561) "" 183 0 "2021/07/06 22:54:10" "2021/07/15 21:44:14")
; End File Header
(in-package :om)(load-lib-for (quote ("Cluster-Engine")))(setf *om-current-persistent* (om-load-patch1 "006c-rules-one-voice" (quote ((let ((box (om-load-boxcall (quote bastype) "aux 6" (quote t) (quote nil) (om-make-point 563 80) (om-make-point 27 30) 0 "0" nil))) (when (fboundp (quote set-active)) (set-active box nil)) box) (let ((box (om-load-boxcall (quote bastype) "aux 5" (quote t) (quote nil) (om-make-point 608 79) (om-make-point 96 30) (quote :include-rests) ":include-rests" nil))) (when (fboundp (quote set-active)) (set-active box nil)) box) (let ((box (om-load-boxcall (quote abstraction) "internal-patch" (om-load-patch-abs1 "internal-patch" (quote ((let ((box (om-load-boxcall (quote lispfun) "NUMBERP" (quote numberp) (quote ((om-load-inputfun (quote input-funbox) "OBJECT" "OBJECT" nil))) (om-make-point 452 270) nil nil nil nil 1))) (when (fboundp (quote set-active)) (set-active box nil)) box) (let ((box (om-load-boxcall (quote genfun) "OM=" (quote om=) (quote ((om-load-inputfun (quote input-funbox) "a number" "A" 0) (om-load-inputfun (quote input-funbox) "a number" "B" 0))) (om-make-point 570 184) (om-make-point 50 35) nil nil nil 1))) (when (fboundp (quote set-active)) (set-active box nil)) box) (let ((box (om-load-boxcall (quote genfun) "OM>" (quote om>) (quote ((om-load-inputfun (quote input-funbox) "a number" "NUM1" 0) (om-load-inputfun (quote input-funbox) "a number" "NUM2" 1))) (om-make-point 332 182) (om-make-point 23 35) nil nil nil 1))) (when (fboundp (quote set-active)) (set-active box nil)) box) (let ((box (om-load-boxcall (quote bastype) "aux 2" (quote t) (quote nil) (om-make-point 596 302) (om-make-point 24 30) (quote t) "t" nil))) (when (fboundp (quote set-active)) (set-active box nil)) box) (let ((box (om-load-boxcall (quote bastype) "aux" (quote t) (quote nil) (om-make-point 603 111) (om-make-point 48 30) 6000 "6000" nil))) (when (fboundp (quote set-active)) (set-active box nil)) box) (let ((box (om-load-boxcall (quote lispfun) "MINUSP" (quote minusp) (quote ((om-load-inputfun (quote input-funbox) "X" "X" nil))) (om-make-point 164 155) nil nil nil nil 1))) (when (fboundp (quote set-active)) (set-active box nil)) box) (let ((box (om-load-boxcall (quote lispfun) "SECOND 3" (quote second) (quote ((om-load-inputfun (quote input-funbox) "LIST" "LIST" nil))) (om-make-point 327 102) nil nil nil nil 1))) (when (fboundp (quote set-active)) (set-active box nil)) box) (let ((box (om-load-boxin "input 2" 1 (om-make-point 460 23) "" nil nil nil))) (when (fboundp (quote set-active)) (set-active box nil)) box) (let ((box (om-load-boxout "output" 0 (om-make-point 351 479) (quote ((om-load-inputfun (quote input-funbox) "" "out" nil))) nil nil))) (when (fboundp (quote set-active)) (set-active box nil)) box) (let ((box (om-load-boxcall (quote genfun) "OMIF 2" (quote omif) (quote ((om-load-inputfun (quote input-funbox) "IF" "TEST" nil) (om-load-inputfun (quote input-funbox) "THEN" "ACTION" nil) (om-load-inputfun (quote input-funbox) "ELSE" "ELSE" nil))) (om-make-point 414 347) (om-make-point 257 57) nil nil nil 1))) (when (fboundp (quote set-active)) (set-active box nil)) box) (let ((box (om-load-boxcall (quote genfun) "OMIF" (quote omif) (quote ((om-load-inputfun (quote input-funbox) "IF" "TEST" nil) (om-load-inputfun (quote input-funbox) "THEN" "ACTION" nil) (om-load-inputfun (quote input-funbox) "ELSE" "ELSE" nil))) (om-make-point 108 255) (om-make-point 313 57) nil nil nil 1))) (when (fboundp (quote set-active)) (set-active box nil)) box) (let ((box (om-load-boxcall (quote lispfun) "SECOND" (quote second) (quote ((om-load-inputfun (quote input-funbox) "LIST" "LIST" nil))) (om-make-point 459 106) nil nil nil nil 1))) (when (fboundp (quote set-active)) (set-active box nil)) box) (let ((box (om-load-boxcall (quote lispfun) "FIRST" (quote first) (quote ((om-load-inputfun (quote input-funbox) "LIST" "LIST" nil))) (om-make-point 175 102) nil nil nil nil 1))) (when (fboundp (quote set-active)) (set-active box nil)) box) (let ((box (om-load-boxin "input 1" 0 (om-make-point 210 20) "" "input 1" nil nil))) (when (fboundp (quote set-active)) (set-active box nil)) box))) (quote ((11 0 0 0 nil 0) (11 0 1 0 nil 2) (4 0 1 1 nil 0) (11 0 2 0 nil 2) (6 0 2 1 nil 1) (12 0 5 0 nil 1) (13 0 6 0 nil 1) (9 0 8 0 nil 0) (0 0 9 0 nil 0) (10 0 9 1 nil 1) (3 0 9 2 nil 0) (5 0 10 0 nil 1) (1 0 10 1 nil 2) (2 0 10 2 nil 3) (7 0 11 0 nil 0) (13 0 12 0 nil 1))) 6.18 nil "" (om-make-point 37 27) (om-make-point 722 607)) (quote ((om-load-inputfun (quote input-funbox) "" "input" nil) (om-load-inputfun (quote input-funbox) "" "input 2" nil))) (om-make-point 462 23) nil (list nil) "l" "internal-patch"))) (when (fboundp (quote set-active)) (set-active box nil)) box) (let ((box (om-load-boxcall (quote genfun) "ARITHM-SER" (quote arithm-ser) (quote ((om-load-inputfun (quote input-funbox) "begin" "BEGIN" 6000) (om-load-inputfun (quote input-funbox) "end " "END" 7900) (om-load-inputfun (quote input-funbox) "step" "STEP" 100))) (om-make-point 910 140) nil nil nil nil 1))) (when (fboundp (quote set-active)) (set-active box nil)) box) (let ((box (om-load-boxcall (quote lispfun) "LIST" (quote list) (quote ((om-load-inputfun (quote input-funbox) "add-input" "add-input" nil))) (om-make-point 894 191) nil nil "l" nil 1))) (when (fboundp (quote set-active)) (set-active box nil)) box) (let ((box (om-load-boxcall (quote lispfun) "MAPCAR" (quote mapcar) (quote ((om-load-inputfun (quote input-funbox) "FUNCTION" "FUNCTION" nil) (om-load-inputfun (quote input-funbox) "LIST" "LIST" nil))) (om-make-point 909 247) nil nil nil nil 1))) (when (fboundp (quote set-active)) (set-active box nil)) box) (let ((box (om-load-boxcall (quote genfun) "CLUSTER-ENGINE" (quote cluster-engine::cluster-engine) (quote ((om-load-inputfun (quote input-funbox) "integer" "NO-OF-VARIABLES" 10) (om-load-inputfun (quote input-funbox) "t/nil" "RND?" (quote t)) (om-load-inputfun (quote input-funbox) "t/nil" "DEBUG?" nil) (om-load-inputfun (quote input-funbox) "t/nil" "RULES" nil) (om-load-inputfun (quote input-funbox) "number" "TEMPO" 90) (om-load-inputfunmenu1 (quote input-funmenu) "voices-or-list" "OUTPUT" (quote :voices) (list (list "voices" (quote :voices)) (list "list" (quote :list)))) (om-load-inputfun (quote input-funbox) "list-of-timsig" "METRIC-DOMAIN" (list (list 4 4))) (om-load-inputfun (quote input-funbox) "ratios" "RHYTHMDOMAIN0" (list (list 1/4))) (om-load-inputfun (quote input-funbox) "midics" "PITCHDOM0" nil))) (om-make-point 719 352) nil nil nil nil 1))) (when (fboundp (quote set-active)) (set-active box nil)) box) (let ((box (om-load-boxcall (quote bastype) "aux 4" (quote t) (quote nil) (om-make-point 726 248) (om-make-point 160 29) (list (list 1/16) (list 1/8) (list 1/4) (list -1/8)) "((1/16) (1/8) (1/4) (-1/8))" nil))) (when (fboundp (quote set-active)) (set-active box nil)) box) (let ((box (om-load-editor-box1 "POLY" (quote poly) (quote ((om-load-inputfun (quote input-funbox) "object" "self" nil) (om-load-inputfun (quote input-funbox) "list of VOICE objects" "voices" (list (let ((newobj (when (find-class (quote voice) nil) (make-instance (quote voice) :tree (quote (1 (((4 4) (1 1 1 1))))) :chords (load-obj-list-from-save (quote ((let ((thechord (make-instance (quote chord) :lmidic (quote (6000)) :ldur (quote (1000)) :lvel (quote (100)) :loffset (quote (0)) :lchan (quote (1))))) (load-port-info thechord (quote (0))) (init-mus-color thechord (quote nil)) (set-extra-pairs thechord (quote nil)) (set-tonalite thechord nil) thechord) (let ((thechord (make-instance (quote chord) :lmidic (quote (6000)) :ldur (quote (1000)) :lvel (quote (100)) :loffset (quote (0)) :lchan (quote (1))))) (load-port-info thechord (quote (0))) (init-mus-color thechord (quote nil)) (set-extra-pairs thechord (quote nil)) (set-tonalite thechord nil) thechord) (let ((thechord (make-instance (quote chord) :lmidic (quote (6000)) :ldur (quote (1000)) :lvel (quote (100)) :loffset (quote (0)) :lchan (quote (1))))) (load-port-info thechord (quote (0))) (init-mus-color thechord (quote nil)) (set-extra-pairs thechord (quote nil)) (set-tonalite thechord nil) thechord) (let ((thechord (make-instance (quote chord) :lmidic (quote (6000)) :ldur (quote (1000)) :lvel (quote (100)) :loffset (quote (0)) :lchan (quote (1))))) (load-port-info thechord (quote (0))) (init-mus-color thechord (quote nil)) (set-extra-pairs thechord (quote nil)) (set-tonalite thechord nil) thechord)))) :tempo (quote ((1/4 60) nil)) :legato 100 :ties (quote (nil nil nil nil)))))) (load-port-info newobj (quote nil)) (init-mus-color newobj (quote nil)) (set-extra-pairs newobj (quote nil)) (set-patch-pairs newobj (quote nil)) (set-name newobj nil) (set-tonalite newobj nil) newobj))))) (om-make-point 538 452) (om-make-point 420 89) (if (find-class (quote poly) nil) (let ((newobj (make-instance (quote poly) :voices (list (let ((newobj (when (find-class (quote voice) nil) (make-instance (quote voice) :tree (quote (2 (((4 4) ((1 (-1 1)) (1 (1.0 1)) (1 (1.0 -1)) (1 (-1 1)))) ((4 4) ((1 (1.0 -1)) 1 (1 (1 -2 -1)) -1))))) :chords (load-obj-list-from-save (quote ((let ((thechord (make-instance (quote chord) :lmidic (quote (6000)) :ldur (quote (333)) :lvel (quote (80)) :loffset (quote (0)) :lchan (quote (1))))) (load-port-info thechord (quote (nil))) (init-mus-color thechord (quote nil)) (set-extra-pairs thechord (quote nil)) (set-tonalite thechord nil) thechord) (let ((thechord (make-instance (quote chord) :lmidic (quote (6600)) :ldur (quote (333)) :lvel (quote (80)) :loffset (quote (0)) :lchan (quote (1))))) (load-port-info thechord (quote (nil))) (init-mus-color thechord (quote nil)) (set-extra-pairs thechord (quote nil)) (set-tonalite thechord nil) thechord) (let ((thechord (make-instance (quote chord) :lmidic (quote (6000)) :ldur (quote (333)) :lvel (quote (80)) :loffset (quote (0)) :lchan (quote (1))))) (load-port-info thechord (quote (nil))) (init-mus-color thechord (quote nil)) (set-extra-pairs thechord (quote nil)) (set-tonalite thechord nil) thechord) (let ((thechord (make-instance (quote chord) :lmidic (quote (6000)) :ldur (quote (667)) :lvel (quote (80)) :loffset (quote (0)) :lchan (quote (1))))) (load-port-info thechord (quote (nil))) (init-mus-color thechord (quote nil)) (set-extra-pairs thechord (quote nil)) (set-tonalite thechord nil) thechord) (let ((thechord (make-instance (quote chord) :lmidic (quote (7900)) :ldur (quote (167)) :lvel (quote (80)) :loffset (quote (0)) :lchan (quote (1))))) (load-port-info thechord (quote (nil))) (init-mus-color thechord (quote nil)) (set-extra-pairs thechord (quote nil)) (set-tonalite thechord nil) thechord)))) :tempo (quote ((1/4 90) nil)) :legato 100 :ties (quote (nil nil nil nil nil)))))) (load-port-info newobj (quote nil)) (init-mus-color newobj (quote nil)) (set-extra-pairs newobj (quote nil)) (set-patch-pairs newobj (quote nil)) (set-name newobj nil) (set-tonalite newobj nil) newobj)) :from-file t))) (load-port-info newobj (quote (nil))) (init-mus-color newobj (quote nil)) (set-extra-pairs newobj (quote nil)) (set-patch-pairs newobj (quote nil)) (set-name newobj nil) (set-tonalite newobj nil) newobj)) nil nil (pairlis (quote (approx fontsize staff cmnpref deltapict outport inport player zoom notechancolor? grillestep mode winsize winpos score-mode obj-mode cursor-mode show-stems scale)) (list 2 24 (list (quote g)) (let ((newobj (make-instance (quote edition-values)))) (setf (paper-size newobj) (om-make-point 600 800)) (setf (top-margin newobj) 2) (setf (left-margin newobj) 1) (setf (right-margin newobj) 1) (setf (bottom-margin newobj) 1) (setf (orientation newobj) nil) (setf (scale newobj) nil) (setf (system-space newobj) (quote (1))) (setf (system-color newobj) (quote nil)) (setf (line-space newobj) 1) (setf (title newobj) nil) (setf (show-title? newobj) nil) (setf (show-page? newobj) nil) (setf (sheet-id newobj) nil) (setf (page-mode newobj) nil) newobj) (om-make-point 0 0) nil nil (quote :osc-scoreplayer) 1 nil 1000 0 (om-make-point 370 280) (om-make-point 400 23) 0 1 (quote :normal) (quote t) nil)) t nil nil nil))) (when (fboundp (quote set-active)) (set-active box nil)) box) (let ((box (om-load-boxcall (quote bastype) "aux 3" (quote t) (quote nil) (om-make-point 901 111) (om-make-point 37 26) 6000 "6000" nil))) (when (fboundp (quote set-active)) (set-active box nil)) box) (let ((box (om-load-boxcall (quote bastype) "aux 2" (quote t) (quote nil) (om-make-point 920 81) (om-make-point 48 30) 7900 "7900" nil))) (when (fboundp (quote set-active)) (set-active box nil)) box) (let ((box (om-load-boxcall (quote bastype) "aux" (quote t) (quote nil) (om-make-point 948 111) (om-make-point 31 27) 100 "100" nil))) (when (fboundp (quote set-active)) (set-active box nil)) box) (let ((box (om-load-boxcall (quote genfun) "RULES-TO-CLUSTER" (quote cluster-engine::rules-to-cluster) (quote ((om-load-inputfun (quote input-funbox) "rules" "RULES?" nil))) (om-make-point 569 221) nil nil nil nil 1))) (when (fboundp (quote set-active)) (set-active box nil)) box) (let ((box (om-load-boxcall (quote genfun) "RRHYTHM-PITCH-ONE-VOICE" (quote cluster-engine::rrhythm-pitch-one-voice) (quote ((om-load-inputfun (quote input-funbox) "rule" "RULE" nil) (om-load-inputfun (quote input-funbox) "voice-number" "VOICES" 0) (om-load-inputfunmenu1 (quote input-funmenu) "input-mode" "INPUT-MODE" (quote :rhythm/pitch) (list (list "rhythm/pitch" (quote :rhythm/pitch)) (list "include-rests" (quote :include-rests)) (list "rhythm/pitch-segment" (quote :rhythm/pitch-segment)) (list "rhythm/time/pitch" (quote :rhythm/time/pitch)) (list "rhythm/pitch-list-ALL" (quote :rhythm/pitch-list-all)))))) (om-make-point 503 112) nil nil nil nil 1))) (when (fboundp (quote set-active)) (set-active box nil)) box) (let ((box (om-load-boxcomment "comment" (om-make-point 416 405) (quote "RULES ONE VOICE 3$$The rrhythm-pitch-one-voice function is set to incude rests in this example.$$The rule forces every event after a rest to be a C4 (MIDICENTS note # 6000). If a pitch is not preceeded by a rest, it has to be higher than the previous pitch.$$Open the internal patch to see how it is done:$$The two inputs on the abstraction receives consecutive events on the format '(duration pitch).$$The omif down to the right in the internal patch tests that the second event is not a rest (i.e. that the pitch is not nil). This is necessary to avoid error messages when evaluating the tests '= and '>. If it is a rest, the rule will always output 'true. There is thus a risk that the patch will output exclusively rests: this is allowed (but unlikely).$$The left-most omif tests if the duration of the first event is negative, i.e. if the first event is a rest. If that is the case, the pitch of the second event has to be 6000. If it is not a rest, the second pitch has to be higher than the first.") "" (om-make-point 11 35) nil (om-make-color 0 0 0) (om-make-font "Verdana" 12 :family "Verdana" :style (quote (:plain)) :mode (quote nil))))) (when (fboundp (quote set-active)) (set-active box nil)) box))) (quote ((9 0 3 0 nil 0) (10 0 3 1 nil 0) (11 0 3 2 nil 0) (4 0 5 0 nil 0) (3 0 5 1 nil 0) (12 0 6 3 nil 0) (7 0 6 7 nil 0) (5 0 6 8 nil 0) (6 0 8 1 nil 0) (13 0 12 0 nil 0) (2 0 13 0 nil 0) (0 0 13 1 nil 0) (1 0 13 2 nil 0))) nil 6.18))
