; OM File Header - Saved 2021/07/23 1:53:36
; (6.18 :patc (om-make-point 10 10) (om-make-point 315 23) (om-make-point 956 519) "" 183 0 "2021/07/09 15:11:30" "2021/07/16 16:18:15")
; End File Header
(in-package :om)(load-lib-for (quote ("Cluster-Engine")))(setf *om-current-persistent* (om-load-patch1 "010b-jbs-rules" (quote ((let ((box (om-load-boxcall (quote bastype) "aux 2" (quote t) (quote nil) (om-make-point 4017/7 936/7) (om-make-point 77 30) (quote :durations) ":durations" nil))) (when (fboundp (quote set-active)) (set-active box nil)) box) (let ((box (om-load-boxcall (quote bastype) "aux" (quote t) (quote nil) (om-make-point 2533/7 866/7) (om-make-point 64 30) (quote :pitches) ":pitches" nil))) (when (fboundp (quote set-active)) (set-active box nil)) box) (let ((box (om-load-boxcall (quote bastype) "aux 5" (quote t) (quote nil) (om-make-point 3359/7 201/7) (om-make-point 56 30) (list 1/16) "(1/16)" nil))) (when (fboundp (quote set-active)) (set-active box nil)) box) (let ((box (om-load-boxcall (quote bastype) "aux 4" (quote t) (quote nil) (om-make-point 1679/7 187/7) (om-make-point 111 30) (list -100 200 -300) "(-100 200 -300)" nil))) (when (fboundp (quote set-active)) (set-active box nil)) box) (let ((box (om-load-boxcall (quote genfun) "RJBS-ONE-VOICE" (quote cluster-engine::rjbs-one-voice) (quote ((om-load-inputfun (quote input-funbox) "jbs-rule" "JBSRULE0" nil) (om-load-inputfunmenu1 (quote input-funmenu) "rule-type" "RULETYPE0" (quote :pitches) (list (list "pitches" (quote :pitches)) (list "durations" (quote :durations)))) (om-load-inputfun (quote input-funbox) "voice" "VOICE0" 0) (om-load-inputfun (quote input-funbox) "jbs-rule" "JBSRULE1" nil) (om-load-inputfunmenu1 (quote input-funmenu) "rule-type" "RULETYPE1" (quote :durations) (list (list "pitches" (quote :pitches)) (list "durations" (quote :durations)))) (om-load-inputfun (quote input-funbox) "voice" "VOICE1" 0))) (om-make-point 2554/7 1251/7) nil nil nil nil 1))) (when (fboundp (quote set-active)) (set-active box nil)) box) (let ((box (om-load-boxcall (quote genfun) "ALLOWED-INTERVALS-RULE 2" (quote cluster-engine::allowed-intervals-rule) (quote ((om-load-inputfun (quote input-funbox) "intervals-list" "INTERVALS" (list -100 200 -300)) (om-load-inputfunmenu1 (quote input-funmenu) "abs/up-down" "ABSOLUTE?" (quote :absolute) (list (list "absolute" (quote :absolute)) (list "up/down" (quote :up/down)))) (om-load-inputfunmenu1 (quote input-funmenu) "mode" "MODE?" (quote :true/false) (list (list "ture/false" (quote :true/false)) (list "heuristic" (quote :heuristic)))) (om-load-inputfun (quote input-funbox) "weight-number" "WEIGHT" 1))) (om-make-point 3079/7 551/7) nil nil nil nil 1))) (when (fboundp (quote set-active)) (set-active box nil)) box) (let ((box (om-load-boxcall (quote genfun) "ALLOWED-INTERVALS-RULE" (quote cluster-engine::allowed-intervals-rule) (quote ((om-load-inputfun (quote input-funbox) "intervals-list" "INTERVALS" (list -100 200 -300)) (om-load-inputfunmenu1 (quote input-funmenu) "abs/up-down" "ABSOLUTE?" (quote :absolute) (list (list "absolute" (quote :absolute)) (list "up/down" (quote :up/down)))) (om-load-inputfunmenu1 (quote input-funmenu) "mode" "MODE?" (quote :true/false) (list (list "ture/false" (quote :true/false)) (list "heuristic" (quote :heuristic)))) (om-load-inputfun (quote input-funbox) "weight-number" "WEIGHT" 1))) (om-make-point 1609/7 544/7) nil nil nil nil 1))) (when (fboundp (quote set-active)) (set-active box nil)) box) (let ((box (om-load-boxcomment "comment" (om-make-point 226 104) (quote "OBS.: The jbs-constraints library, by Jacopo Baboni Schilingi, it's not fully available for OpenMusic. The function used in this patch it's only a demonstration.") "" (om-make-point 31 241) nil (om-make-color 0 0 0) (om-make-font "Verdana" 12 :family "Verdana" :style (quote (:plain)) :mode (quote nil))))) (when (fboundp (quote set-active)) (set-active box nil)) box) (let ((box (om-load-editor-box1 "POLY" (quote poly) (quote ((om-load-inputfun (quote input-funbox) "object" "self" nil) (om-load-inputfun (quote input-funbox) "list of VOICE objects" "voices" (list (let ((newobj (when (find-class (quote voice) nil) (make-instance (quote voice) :tree (quote (1 (((4 4) (1 1 1 1))))) :chords (load-obj-list-from-save (quote ((let ((thechord (make-instance (quote chord) :lmidic (quote (6000)) :ldur (quote (1000)) :lvel (quote (100)) :loffset (quote (0)) :lchan (quote (1))))) (load-port-info thechord (quote (0))) (init-mus-color thechord (quote nil)) (set-extra-pairs thechord (quote nil)) (set-tonalite thechord nil) thechord) (let ((thechord (make-instance (quote chord) :lmidic (quote (6000)) :ldur (quote (1000)) :lvel (quote (100)) :loffset (quote (0)) :lchan (quote (1))))) (load-port-info thechord (quote (0))) (init-mus-color thechord (quote nil)) (set-extra-pairs thechord (quote nil)) (set-tonalite thechord nil) thechord) (let ((thechord (make-instance (quote chord) :lmidic (quote (6000)) :ldur (quote (1000)) :lvel (quote (100)) :loffset (quote (0)) :lchan (quote (1))))) (load-port-info thechord (quote (0))) (init-mus-color thechord (quote nil)) (set-extra-pairs thechord (quote nil)) (set-tonalite thechord nil) thechord) (let ((thechord (make-instance (quote chord) :lmidic (quote (6000)) :ldur (quote (1000)) :lvel (quote (100)) :loffset (quote (0)) :lchan (quote (1))))) (load-port-info thechord (quote (0))) (init-mus-color thechord (quote nil)) (set-extra-pairs thechord (quote nil)) (set-tonalite thechord nil) thechord)))) :tempo (quote ((1/4 60) nil)) :legato 100 :ties (quote (nil nil nil nil)))))) (load-port-info newobj (quote nil)) (init-mus-color newobj (quote nil)) (set-extra-pairs newobj (quote nil)) (set-patch-pairs newobj (quote nil)) (set-name newobj nil) (set-tonalite newobj nil) newobj))))) (om-make-point 225 384) (om-make-point 668 120) (if (find-class (quote poly) nil) (let ((newobj (make-instance (quote poly) :voices (list (let ((newobj (when (find-class (quote voice) nil) (make-instance (quote voice) :tree (quote (2 (((4 4) ((1 (3 1)) (1 (1.0 3)) (1 (2 1 1)) (1 (1.0 3)))) ((4 4) ((1 (1 1)) (1 (1.0 2 -1)) -2))))) :chords (load-obj-list-from-save (quote ((let ((thechord (make-instance (quote chord) :lmidic (quote (6000)) :ldur (quote (500)) :lvel (quote (80)) :loffset (quote (0)) :lchan (quote (1))))) (load-port-info thechord (quote (nil))) (init-mus-color thechord (quote nil)) (set-extra-pairs thechord (quote nil)) (set-tonalite thechord nil) thechord) (let ((thechord (make-instance (quote chord) :lmidic (quote (6300)) :ldur (quote (167)) :lvel (quote (80)) :loffset (quote (0)) :lchan (quote (1))))) (load-port-info thechord (quote (nil))) (init-mus-color thechord (quote nil)) (set-extra-pairs thechord (quote nil)) (set-tonalite thechord nil) thechord) (let ((thechord (make-instance (quote chord) :lmidic (quote (6100)) :ldur (quote (500)) :lvel (quote (80)) :loffset (quote (0)) :lchan (quote (1))))) (load-port-info thechord (quote (nil))) (init-mus-color thechord (quote nil)) (set-extra-pairs thechord (quote nil)) (set-tonalite thechord nil) thechord) (let ((thechord (make-instance (quote chord) :lmidic (quote (6400)) :ldur (quote (333)) :lvel (quote (80)) :loffset (quote (0)) :lchan (quote (1))))) (load-port-info thechord (quote (nil))) (init-mus-color thechord (quote nil)) (set-extra-pairs thechord (quote nil)) (set-tonalite thechord nil) thechord) (let ((thechord (make-instance (quote chord) :lmidic (quote (6700)) :ldur (quote (167)) :lvel (quote (80)) :loffset (quote (0)) :lchan (quote (1))))) (load-port-info thechord (quote (nil))) (init-mus-color thechord (quote nil)) (set-extra-pairs thechord (quote nil)) (set-tonalite thechord nil) thechord) (let ((thechord (make-instance (quote chord) :lmidic (quote (6600)) :ldur (quote (167)) :lvel (quote (80)) :loffset (quote (0)) :lchan (quote (1))))) (load-port-info thechord (quote (nil))) (init-mus-color thechord (quote nil)) (set-extra-pairs thechord (quote nil)) (set-tonalite thechord nil) thechord) (let ((thechord (make-instance (quote chord) :lmidic (quote (6400)) :ldur (quote (500)) :lvel (quote (80)) :loffset (quote (0)) :lchan (quote (1))))) (load-port-info thechord (quote (nil))) (init-mus-color thechord (quote nil)) (set-extra-pairs thechord (quote nil)) (set-tonalite thechord nil) thechord) (let ((thechord (make-instance (quote chord) :lmidic (quote (6200)) :ldur (quote (333)) :lvel (quote (80)) :loffset (quote (0)) :lchan (quote (1))))) (load-port-info thechord (quote (nil))) (init-mus-color thechord (quote nil)) (set-extra-pairs thechord (quote nil)) (set-tonalite thechord nil) thechord) (let ((thechord (make-instance (quote chord) :lmidic (quote (6500)) :ldur (quote (333)) :lvel (quote (80)) :loffset (quote (0)) :lchan (quote (1))))) (load-port-info thechord (quote (nil))) (init-mus-color thechord (quote nil)) (set-extra-pairs thechord (quote nil)) (set-tonalite thechord nil) thechord) (let ((thechord (make-instance (quote chord) :lmidic (quote (6700)) :ldur (quote (333)) :lvel (quote (80)) :loffset (quote (0)) :lchan (quote (1))))) (load-port-info thechord (quote (nil))) (init-mus-color thechord (quote nil)) (set-extra-pairs thechord (quote nil)) (set-tonalite thechord nil) thechord)))) :tempo (quote ((1/4 90) nil)) :legato 100 :ties (quote (nil nil nil nil nil nil nil nil nil nil)))))) (load-port-info newobj (quote nil)) (init-mus-color newobj (quote nil)) (set-extra-pairs newobj (quote nil)) (set-patch-pairs newobj (quote nil)) (set-name newobj nil) (set-tonalite newobj nil) newobj)) :from-file t))) (load-port-info newobj (quote (nil))) (init-mus-color newobj (quote nil)) (set-extra-pairs newobj (quote nil)) (set-patch-pairs newobj (quote nil)) (set-name newobj nil) (set-tonalite newobj nil) newobj)) nil nil (pairlis (quote (approx fontsize staff cmnpref deltapict outport inport player zoom notechancolor? grillestep mode winsize winpos score-mode obj-mode cursor-mode show-stems scale)) (list 2 24 (quote g) (let ((newobj (make-instance (quote edition-values)))) (setf (paper-size newobj) (om-make-point 600 800)) (setf (top-margin newobj) 2) (setf (left-margin newobj) 1) (setf (right-margin newobj) 1) (setf (bottom-margin newobj) 1) (setf (orientation newobj) nil) (setf (scale newobj) nil) (setf (system-space newobj) (quote (1))) (setf (system-color newobj) (quote nil)) (setf (line-space newobj) 1) (setf (title newobj) nil) (setf (show-title? newobj) nil) (setf (show-page? newobj) nil) (setf (sheet-id newobj) nil) (setf (page-mode newobj) nil) newobj) (om-make-point 0 0) nil nil (quote :osc-scoreplayer) 1 nil 1000 0 (om-make-point 370 280) (om-make-point 400 20) 0 1 (quote :normal) (quote t) nil)) t nil nil nil))) (when (fboundp (quote set-active)) (set-active box nil)) box) (let ((box (om-load-boxcall (quote bastype) "aux 7" (quote t) (quote nil) (om-make-point 808 57) (om-make-point 41 30) 100 "100" nil))) (when (fboundp (quote set-active)) (set-active box nil)) box) (let ((box (om-load-boxcall (quote bastype) "aux 6" (quote t) (quote nil) (om-make-point 754 56) (om-make-point 48 30) 7900 "7900" nil))) (when (fboundp (quote set-active)) (set-active box nil)) box) (let ((box (om-load-boxcall (quote bastype) "aux 3" (quote t) (quote nil) (om-make-point 702 56) (om-make-point 48 30) 6000 "6000" nil))) (when (fboundp (quote set-active)) (set-active box nil)) box) (let ((box (om-load-boxcall (quote genfun) "CLUSTER-ENGINE" (quote cluster-engine::cluster-engine) (quote ((om-load-inputfun (quote input-funbox) "integer" "NO-OF-VARIABLES" 10) (om-load-inputfun (quote input-funbox) "t/nil" "RND?" (quote t)) (om-load-inputfun (quote input-funbox) "t/nil" "DEBUG?" nil) (om-load-inputfun (quote input-funbox) "t/nil" "RULES" nil) (om-load-inputfun (quote input-funbox) "number" "TEMPO" 90) (om-load-inputfunmenu1 (quote input-funmenu) "voices-or-list" "OUTPUT" (quote :voices) (list (list "voices" (quote :voices)) (list "list" (quote :list)))) (om-load-inputfun (quote input-funbox) "list-of-timsig" "METRIC-DOMAIN" (list (list 4 4))) (om-load-inputfun (quote input-funbox) "ratios" "RHYTHMDOMAIN0" (list (list 1/4))) (om-load-inputfun (quote input-funbox) "midics" "PITCHDOMAIN0" nil))) (om-make-point 502 288) nil nil nil nil 1))) (when (fboundp (quote set-active)) (set-active box nil)) box) (let ((box (om-load-editor-box1 "CHORD-SEQ" (quote chord-seq) (quote ((om-load-inputfun (quote input-funbox) "object" "self" nil) (om-load-inputfun (quote input-funbox) "pitches (mc): list or list of lists" "lmidic" (list 6000)) (om-load-inputfun (quote input-funbox) "onsets (ms): list" "lonset" (list 0 1000)) (om-load-inputfun (quote input-funbox) "durations (ms): list or list of lists" "ldur" (list 1000)) (om-load-inputfun (quote input-funbox) "velocities (0-127): list or list of lists" "lvel" (list 100)) (om-load-inputfun (quote input-funbox) "offsets (ms): list or list of lists" "loffset" (list 0)) (om-load-inputfun (quote input-funbox) "MIDI channels (1-16): list or list of lists" "lchan" (list 1)) (om-load-inputfun (quote input-funbox) "relative chords duration (0-100)" "legato" 0))) (om-make-point 710 180) (om-make-point 130 70) (let ((newobj (when (find-class (quote chord-seq) nil) (make-instance (quote chord-seq) :lmidic (quote ((6000) (6100) (6200) (6300) (6400) (6500) (6600) (6700) (6800) (6900) (7000) (7100) (7200) (7300) (7400) (7500) (7600) (7700) (7800) (7900))) :lonset (quote (0 1000 2000 3000 4000 5000 6000 7000 8000 9000 10000 11000 12000 13000 14000 15000 16000 17000 18000 19000 20000)) :ldur (quote ((1000) (1000) (1000) (1000) (1000) (1000) (1000) (1000) (1000) (1000) (1000) (1000) (1000) (1000) (1000) (1000) (1000) (1000) (1000) (1000))) :lvel (quote ((100) (100) (100) (100) (100) (100) (100) (100) (100) (100) (100) (100) (100) (100) (100) (100) (100) (100) (100) (100))) :loffset (quote ((0) (0) (0) (0) (0) (0) (0) (0) (0) (0) (0) (0) (0) (0) (0) (0) (0) (0) (0) (0))) :lchan (quote ((1) (1) (1) (1) (1) (1) (1) (1) (1) (1) (1) (1) (1) (1) (1) (1) (1) (1) (1) (1))) :legato 0)))) (load-port-info newobj (quote ((0) (0) (0) (0) (0) (0) (0) (0) (0) (0) (0) (0) (0) (0) (0) (0) (0) (0) (0) (0)))) (init-mus-color newobj (quote nil)) (set-extra-pairs newobj (quote nil)) (set-patch-pairs newobj (quote nil)) (set-name newobj nil) (set-tonalite newobj nil) newobj) nil nil (pairlis (quote (approx fontsize staff cmnpref deltapict outport inport player zoom notechancolor? grillestep mode winsize winpos score-mode obj-mode cursor-mode show-stems scale)) (list 2 24 (quote g) (let ((newobj (make-instance (quote edition-values)))) (setf (paper-size newobj) (om-make-point 600 800)) (setf (top-margin newobj) 2) (setf (left-margin newobj) 1) (setf (right-margin newobj) 1) (setf (bottom-margin newobj) 1) (setf (orientation newobj) nil) (setf (scale newobj) nil) (setf (system-space newobj) (quote (1))) (setf (system-color newobj) (quote nil)) (setf (line-space newobj) 1) (setf (title newobj) nil) (setf (show-title? newobj) nil) (setf (show-page? newobj) nil) (setf (sheet-id newobj) nil) (setf (page-mode newobj) nil) newobj) (om-make-point 0 0) nil nil (quote :osc-scoreplayer) 1 nil 1000 0 (om-make-point 370 280) (om-make-point 400 20) 0 1 (quote :normal) (quote t) nil)) nil nil nil nil))) (when (fboundp (quote set-active)) (set-active box nil)) box) (let ((box (om-load-boxcall (quote genfun) "ARITHM-SER" (quote arithm-ser) (quote ((om-load-inputfun (quote input-funbox) "begin" "BEGIN" 6000) (om-load-inputfun (quote input-funbox) "end " "END" 7900) (om-load-inputfun (quote input-funbox) "step" "STEP" 100))) (om-make-point 744 103) nil nil nil nil 1))) (when (fboundp (quote set-active)) (set-active box nil)) box) (let ((box (om-load-boxcall (quote bastype) "list" (quote list) (quote nil) (om-make-point 457 205) (om-make-point 238 42) (list (list 1/16) (list 1/8) (list 3/16) (list 1/4) (list 5/16) (list 3/8) (list 7/16) (list 1/2) (list 9/16) (list 5/8) (list 11/16) (list 3/4)) "((1/16) (1/8) (3/16) (1/4) (5/16) (3/8) (7/16) (1/2) (9/16) (5/8) (11/16) (3/4))" nil))) (when (fboundp (quote set-active)) (set-active box nil)) box) (let ((box (om-load-boxcomment "comment" (om-make-point 158 160) (quote "This patch illustrates how to use rules from the jbs-constraints library with the cluster engine.$$Note that these rules only can constrain one engine.") "" (om-make-point 24 33) nil (om-make-color 0 0 0) (om-make-font "Verdana" 12 :family "Verdana" :style (quote (:plain)) :mode (quote nil))))) (when (fboundp (quote set-active)) (set-active box nil)) box))) (quote ((6 0 4 0 nil 0) (1 0 4 1 nil 0) (5 0 4 3 nil 0) (0 0 4 4 nil 0) (2 0 5 0 nil 0) (3 0 6 0 nil 0) (12 0 8 1 nil 0) (4 0 12 3 nil 0) (15 0 12 7 nil 0) (13 1 12 8 nil 0) (14 0 13 1 nil 0) (11 0 14 0 nil 0) (10 0 14 1 nil 0) (9 0 14 2 nil 0))) nil 6.18))
