; OM File Header - Saved 2021/07/23 1:53:36
; (6.18 :patc (om-make-point 10 10) (om-make-point 50 50) (om-make-point 1238 672) "" 183 0 "2021/07/15 14:03:22" "2021/07/21 22:36:17")
; End File Header
(in-package :om)(load-lib-for (quote ("OMCS" "Cluster-Engine")))(setf *om-current-persistent* (om-load-patch1 "010d-pmc-rules 2" (quote ((let ((box (om-load-boxcall (quote bastype) "aux 9" (quote t) (quote nil) (om-make-point 8326/21 7109/42) (om-make-point 54 30) (quote :pitches) ":pitches" nil))) (when (fboundp (quote set-active)) (set-active box nil)) box) (let ((box (om-load-boxcall (quote bastype) "aux 8" (quote t) (quote nil) (om-make-point 9103/21 8285/42) (om-make-point 27 30) 0 "0" nil))) (when (fboundp (quote set-active)) (set-active box nil)) box) (let ((box (om-load-boxcall (quote genfun) "RPMC-ONE-VOICE" (quote cluster-engine::rpmc-one-voice) (quote ((om-load-inputfun (quote input-funbox) "pmc-rules" "PMCRULES0" nil) (om-load-inputfunmenu1 (quote input-funmenu) "rule-type" "RULETYPE0" (quote :pitches) (list (list "pitches" (quote :pitches)) (list "durations" (quote :durations)))) (om-load-inputfun (quote input-funbox) "voice" "VOICE0" 0))) (om-make-point 7843/21 9797/42) nil nil nil nil 1))) (when (fboundp (quote set-active)) (set-active box nil)) box) (let ((box (om-load-boxcall (quote genfun) "WILDCARD-RULE" (quote omcs::wildcard-rule) (quote ((om-load-inputfun (quote input-funbox) "function" "FUNCTION" nil))) (om-make-point 7183/21 3737/42) nil nil nil nil 1))) (when (fboundp (quote set-active)) (set-active box nil)) box) (let ((box (om-load-boxcall (quote lispfun) "LIST 3" (quote list) (quote ((om-load-inputfun (quote input-funbox) "add-input" "add-input" nil))) (om-make-point 7708/21 6593/42) nil nil nil nil 1))) (when (fboundp (quote set-active)) (set-active box nil)) box) (let ((box (om-load-boxcall (quote abstraction) "intervals" (om-load-patch-abs1 "intervals" (quote ((let ((box (om-load-boxout "output" 0 (om-make-point 225 327) (quote ((om-load-inputfun (quote input-funbox) "" "out" nil))) nil nil))) (when (fboundp (quote set-active)) (set-active box nil)) box) (let ((box (om-load-boxcall (quote bastype) "aux" (quote t) (quote nil) (om-make-point 254 223) (om-make-point 136 30) (list 100 -100 200 -200) "(100 -100 200 -200)" nil))) (when (fboundp (quote set-active)) (set-active box nil)) box) (let ((box (om-load-boxcall (quote lispfun) "MEMBER" (quote member) (quote ((om-load-inputfun (quote input-funbox) "ITEM" "ITEM" nil) (om-load-inputfun (quote input-funbox) "LIST" "LIST" nil))) (om-make-point 222 253) nil nil nil nil 1))) (when (fboundp (quote set-active)) (set-active box nil)) box) (let ((box (om-load-boxcall (quote lispfun) "-" (quote -) (quote ((om-load-inputfun (quote input-funbox) "NUM" "NUM" nil) (om-load-inputfun (quote input-funbox) "add-input" "add-input" nil))) (om-make-point 229 162) nil nil nil nil 1))) (when (fboundp (quote set-active)) (set-active box nil)) box) (let ((box (om-load-boxin "input 2" 1 (om-make-point 327 48) "" nil nil nil))) (when (fboundp (quote set-active)) (set-active box nil)) box) (let ((box (om-load-boxin "input" 0 (om-make-point 103 42) "" nil nil nil))) (when (fboundp (quote set-active)) (set-active box nil)) box))) (quote ((2 0 0 0 nil 0) (3 0 2 0 nil 0) (1 0 2 1 nil 0) (4 0 3 0 nil 3) (5 0 3 1 nil 2))) 6.18 nil "" (om-make-point 200 200) (om-make-point 500 400)) (quote ((om-load-inputfun (quote input-funbox) "" "input" nil) (om-load-inputfun (quote input-funbox) "" "input 2" nil))) (om-make-point 7477/21 755/42) nil (list nil) "l" "intervals"))) (when (fboundp (quote set-active)) (set-active box nil)) box) (let ((box (om-load-boxcall (quote genfun) "ALLOWED-INTERVALS-RULE 2" (quote cluster-engine::allowed-intervals-rule) (quote ((om-load-inputfun (quote input-funbox) "intervals-list" "INTERVALS" (list -100 200 -300)) (om-load-inputfunmenu1 (quote input-funmenu) "abs/up-down" "ABSOLUTE?" (quote :absolute) (list (list "absolute" (quote :absolute)) (list "up/down" (quote :up/down)))) (om-load-inputfunmenu1 (quote input-funmenu) "mode" "MODE?" (quote :true/false) (list (list "ture/false" (quote :true/false)) (list "heuristic" (quote :heuristic)))) (om-load-inputfun (quote input-funbox) "weight-number" "WEIGHT" 1))) (om-make-point 3055/7 331/7) nil nil nil nil 1))) (when (fboundp (quote set-active)) (set-active box nil)) box) (let ((box (om-load-boxcall (quote genfun) "RJBS-ONE-VOICE" (quote cluster-engine::rjbs-one-voice) (quote ((om-load-inputfun (quote input-funbox) "jbs-rule" "JBSRULE0" nil) (om-load-inputfunmenu1 (quote input-funmenu) "rule-type" "RULETYPE0" (quote :pitches) (list (list "pitches" (quote :pitches)) (list "durations" (quote :durations)))) (om-load-inputfun (quote input-funbox) "voice" "VOICE0" 0))) (om-make-point 3867/7 1619/7) nil nil nil nil 1))) (when (fboundp (quote set-active)) (set-active box nil)) box) (let ((box (om-load-boxcall (quote bastype) "aux 5" (quote t) (quote nil) (om-make-point 3111/7 86/7) (om-make-point 111 30) (list -100 200 -300) "(-100 200 -300)" nil))) (when (fboundp (quote set-active)) (set-active box nil)) box) (let ((box (om-load-boxcall (quote genfun) "SETEND" (quote cluster-engine::setend) (quote ((om-load-inputfun (quote input-funbox) "rule" "RULE" nil) (om-load-inputfun (quote input-funbox) "end-point-number" "END-POINT" 8))) (om-make-point 3496/7 1052/7) nil nil nil nil 1))) (when (fboundp (quote set-active)) (set-active box nil)) box) (let ((box (om-load-boxcall (quote genfun) "RULES-TO-CLUSTER" (quote cluster-engine::rules-to-cluster) (quote ((om-load-inputfun (quote input-funbox) "rules" "RULES?" nil) (om-load-inputfun (quote input-funbox) "rules" "RULES?" nil) (om-load-inputfun (quote input-funbox) "rules" "RULES?" nil))) (om-make-point 3839/7 2172/7) nil nil nil nil 1))) (when (fboundp (quote set-active)) (set-active box nil)) box) (let ((box (om-load-boxcall (quote genfun) "RMETRIC-HIERARCHY" (quote cluster-engine::rmetric-hierarchy) (quote ((om-load-inputfun (quote input-funbox) "voice-number" "VOICES" 0) (om-load-inputfunmenu1 (quote input-funmenu) "rule-mode" "RULE-MODE" (quote :durations) (list (list "durations" (quote :durations)) (list "include-rests" (quote :include-rests)))))) (om-make-point 5071/7 1640/7) nil nil nil nil 1))) (when (fboundp (quote set-active)) (set-active box nil)) box) (let ((box (om-load-boxcall (quote bastype) "aux" (quote t) (quote nil) (om-make-point 5162/7 1402/7) (om-make-point 48 30) (list 0 1) "(0 1)" nil))) (when (fboundp (quote set-active)) (set-active box nil)) box) (let ((box (om-load-boxcall (quote bastype) "aux 2" (quote t) (quote nil) (om-make-point 4602/7 1367/7) (om-make-point 27 30) 1 "1" nil))) (when (fboundp (quote set-active)) (set-active box nil)) box) (let ((box (om-load-boxcall (quote bastype) "aux 4" (quote t) (quote nil) (om-make-point 3965/7 1367/7) (om-make-point 64 30) (quote :pitches) ":pitches" nil))) (when (fboundp (quote set-active)) (set-active box nil)) box) (let ((box (om-load-boxcall (quote bastype) "aux 10" (quote t) (quote nil) (om-make-point 3797/7 814/7) (om-make-point 27 30) 8 "8" nil))) (when (fboundp (quote set-active)) (set-active box nil)) box) (let ((box (om-load-boxcomment "comment" (om-make-point 296 128) (quote "This patch is identical to the previous one, but now the pmc rule was created using an internal patch (in lambda mode) combined with wildcard-rule function from OMCS library. It is also necessary to use the \"list\" function to connect the ouput from wildcard-rule to rpmc-one-voice. ") "" (om-make-point 15 37) nil (om-make-color 0 0 0) (om-make-font "Verdana" 12 :family "Verdana" :style (quote (:plain)) :mode (quote nil))))) (when (fboundp (quote set-active)) (set-active box nil)) box) (let ((box (om-load-editor-box1 "POLY" (quote poly) (quote ((om-load-inputfun (quote input-funbox) "object" "self" nil) (om-load-inputfun (quote input-funbox) "list of VOICE objects" "voices" (list (let ((newobj (when (find-class (quote voice) nil) (make-instance (quote voice) :tree (quote (1 (((4 4) (1 1 1 1))))) :chords (load-obj-list-from-save (quote ((let ((thechord (make-instance (quote chord) :lmidic (quote (6000)) :ldur (quote (1000)) :lvel (quote (100)) :loffset (quote (0)) :lchan (quote (1))))) (load-port-info thechord (quote (0))) (init-mus-color thechord (quote nil)) (set-extra-pairs thechord (quote nil)) (set-tonalite thechord nil) thechord) (let ((thechord (make-instance (quote chord) :lmidic (quote (6000)) :ldur (quote (1000)) :lvel (quote (100)) :loffset (quote (0)) :lchan (quote (1))))) (load-port-info thechord (quote (0))) (init-mus-color thechord (quote nil)) (set-extra-pairs thechord (quote nil)) (set-tonalite thechord nil) thechord) (let ((thechord (make-instance (quote chord) :lmidic (quote (6000)) :ldur (quote (1000)) :lvel (quote (100)) :loffset (quote (0)) :lchan (quote (1))))) (load-port-info thechord (quote (0))) (init-mus-color thechord (quote nil)) (set-extra-pairs thechord (quote nil)) (set-tonalite thechord nil) thechord) (let ((thechord (make-instance (quote chord) :lmidic (quote (6000)) :ldur (quote (1000)) :lvel (quote (100)) :loffset (quote (0)) :lchan (quote (1))))) (load-port-info thechord (quote (0))) (init-mus-color thechord (quote nil)) (set-extra-pairs thechord (quote nil)) (set-tonalite thechord nil) thechord)))) :tempo (quote ((1/4 60) nil)) :legato 100 :ties (quote (nil nil nil nil)))))) (load-port-info newobj (quote nil)) (init-mus-color newobj (quote nil)) (set-extra-pairs newobj (quote nil)) (set-patch-pairs newobj (quote nil)) (set-name newobj nil) (set-tonalite newobj nil) newobj))))) (om-make-point 286 499) (om-make-point 871 160) (if (find-class (quote poly) nil) (let ((newobj (make-instance (quote poly) :voices (list (let ((newobj (when (find-class (quote voice) nil) (make-instance (quote voice) :tree (quote (8 (((4 4) (2 (1 (1.0 1 1 1)) 1.0)) ((4 4) (1.0 (1 (3.0 1)) (1 (3.0 1)) 1.0)) ((4 4) ((1 (3 1)) (1 (1.0 3)) (1 (1.0 3)) 1.0)) ((4 4) ((1 (3.0 1)) 2.0 (1 (1.0 1)))) ((4 4) ((1 (1.0 2 1)) (1 (1.0 3)) 1.0 (1 (1.0 3)))) ((4 4) ((1 (3.0 1)) 1.0 1 (1 (3.0 1)))) ((4 4) (2.0 (1 (2.0 1 1)) 1.0)) ((4 4) ((1 (3.0 1)) 2.0 -1))))) :chords (load-obj-list-from-save (quote ((let ((thechord (make-instance (quote chord) :lmidic (quote (7200)) :ldur (quote (1333)) :lvel (quote (80)) :loffset (quote (0)) :lchan (quote (1))))) (load-port-info thechord (quote (nil))) (init-mus-color thechord (quote nil)) (set-extra-pairs thechord (quote nil)) (set-tonalite thechord nil) thechord) (let ((thechord (make-instance (quote chord) :lmidic (quote (7000)) :ldur (quote (167)) :lvel (quote (80)) :loffset (quote (0)) :lchan (quote (1))))) (load-port-info thechord (quote (nil))) (init-mus-color thechord (quote nil)) (set-extra-pairs thechord (quote nil)) (set-tonalite thechord nil) thechord) (let ((thechord (make-instance (quote chord) :lmidic (quote (7200)) :ldur (quote (167)) :lvel (quote (80)) :loffset (quote (0)) :lchan (quote (1))))) (load-port-info thechord (quote (nil))) (init-mus-color thechord (quote nil)) (set-extra-pairs thechord (quote nil)) (set-tonalite thechord nil) thechord) (let ((thechord (make-instance (quote chord) :lmidic (quote (7300)) :ldur (quote (167)) :lvel (quote (80)) :loffset (quote (0)) :lchan (quote (1))))) (load-port-info thechord (quote (nil))) (init-mus-color thechord (quote nil)) (set-extra-pairs thechord (quote nil)) (set-tonalite thechord nil) thechord) (let ((thechord (make-instance (quote chord) :lmidic (quote (7200)) :ldur (quote (167)) :lvel (quote (80)) :loffset (quote (0)) :lchan (quote (1))))) (load-port-info thechord (quote (nil))) (init-mus-color thechord (quote nil)) (set-extra-pairs thechord (quote nil)) (set-tonalite thechord nil) thechord) (let ((thechord (make-instance (quote chord) :lmidic (quote (7300)) :ldur (quote (167)) :lvel (quote (80)) :loffset (quote (0)) :lchan (quote (1))))) (load-port-info thechord (quote (nil))) (init-mus-color thechord (quote nil)) (set-extra-pairs thechord (quote nil)) (set-tonalite thechord nil) thechord) (let ((thechord (make-instance (quote chord) :lmidic (quote (7400)) :ldur (quote (500)) :lvel (quote (80)) :loffset (quote (0)) :lchan (quote (1))))) (load-port-info thechord (quote (nil))) (init-mus-color thechord (quote nil)) (set-extra-pairs thechord (quote nil)) (set-tonalite thechord nil) thechord) (let ((thechord (make-instance (quote chord) :lmidic (quote (7500)) :ldur (quote (167)) :lvel (quote (80)) :loffset (quote (0)) :lchan (quote (1))))) (load-port-info thechord (quote (nil))) (init-mus-color thechord (quote nil)) (set-extra-pairs thechord (quote nil)) (set-tonalite thechord nil) thechord) (let ((thechord (make-instance (quote chord) :lmidic (quote (7700)) :ldur (quote (500)) :lvel (quote (80)) :loffset (quote (0)) :lchan (quote (1))))) (load-port-info thechord (quote (nil))) (init-mus-color thechord (quote nil)) (set-extra-pairs thechord (quote nil)) (set-tonalite thechord nil) thechord) (let ((thechord (make-instance (quote chord) :lmidic (quote (7600)) :ldur (quote (500)) :lvel (quote (80)) :loffset (quote (0)) :lchan (quote (1))))) (load-port-info thechord (quote (nil))) (init-mus-color thechord (quote nil)) (set-extra-pairs thechord (quote nil)) (set-tonalite thechord nil) thechord) (let ((thechord (make-instance (quote chord) :lmidic (quote (7700)) :ldur (quote (167)) :lvel (quote (80)) :loffset (quote (0)) :lchan (quote (1))))) (load-port-info thechord (quote (nil))) (init-mus-color thechord (quote nil)) (set-extra-pairs thechord (quote nil)) (set-tonalite thechord nil) thechord) (let ((thechord (make-instance (quote chord) :lmidic (quote (7500)) :ldur (quote (333)) :lvel (quote (80)) :loffset (quote (0)) :lchan (quote (1))))) (load-port-info thechord (quote (nil))) (init-mus-color thechord (quote nil)) (set-extra-pairs thechord (quote nil)) (set-tonalite thechord nil) thechord) (let ((thechord (make-instance (quote chord) :lmidic (quote (7300)) :ldur (quote (333)) :lvel (quote (80)) :loffset (quote (0)) :lchan (quote (1))))) (load-port-info thechord (quote (nil))) (init-mus-color thechord (quote nil)) (set-extra-pairs thechord (quote nil)) (set-tonalite thechord nil) thechord) (let ((thechord (make-instance (quote chord) :lmidic (quote (7400)) :ldur (quote (167)) :lvel (quote (80)) :loffset (quote (0)) :lchan (quote (1))))) (load-port-info thechord (quote (nil))) (init-mus-color thechord (quote nil)) (set-extra-pairs thechord (quote nil)) (set-tonalite thechord nil) thechord) (let ((thechord (make-instance (quote chord) :lmidic (quote (7200)) :ldur (quote (500)) :lvel (quote (80)) :loffset (quote (0)) :lchan (quote (1))))) (load-port-info thechord (quote (nil))) (init-mus-color thechord (quote nil)) (set-extra-pairs thechord (quote nil)) (set-tonalite thechord nil) thechord) (let ((thechord (make-instance (quote chord) :lmidic (quote (7000)) :ldur (quote (500)) :lvel (quote (80)) :loffset (quote (0)) :lchan (quote (1))))) (load-port-info thechord (quote (nil))) (init-mus-color thechord (quote nil)) (set-extra-pairs thechord (quote nil)) (set-tonalite thechord nil) thechord) (let ((thechord (make-instance (quote chord) :lmidic (quote (6900)) :ldur (quote (167)) :lvel (quote (80)) :loffset (quote (0)) :lchan (quote (1))))) (load-port-info thechord (quote (nil))) (init-mus-color thechord (quote nil)) (set-extra-pairs thechord (quote nil)) (set-tonalite thechord nil) thechord) (let ((thechord (make-instance (quote chord) :lmidic (quote (6800)) :ldur (quote (667)) :lvel (quote (80)) :loffset (quote (0)) :lchan (quote (1))))) (load-port-info thechord (quote (nil))) (init-mus-color thechord (quote nil)) (set-extra-pairs thechord (quote nil)) (set-tonalite thechord nil) thechord) (let ((thechord (make-instance (quote chord) :lmidic (quote (6700)) :ldur (quote (167)) :lvel (quote (80)) :loffset (quote (0)) :lchan (quote (1))))) (load-port-info thechord (quote (nil))) (init-mus-color thechord (quote nil)) (set-extra-pairs thechord (quote nil)) (set-tonalite thechord nil) thechord) (let ((thechord (make-instance (quote chord) :lmidic (quote (6600)) :ldur (quote (167)) :lvel (quote (80)) :loffset (quote (0)) :lchan (quote (1))))) (load-port-info thechord (quote (nil))) (init-mus-color thechord (quote nil)) (set-extra-pairs thechord (quote nil)) (set-tonalite thechord nil) thechord) (let ((thechord (make-instance (quote chord) :lmidic (quote (6500)) :ldur (quote (167)) :lvel (quote (80)) :loffset (quote (0)) :lchan (quote (1))))) (load-port-info thechord (quote (nil))) (init-mus-color thechord (quote nil)) (set-extra-pairs thechord (quote nil)) (set-tonalite thechord nil) thechord) (let ((thechord (make-instance (quote chord) :lmidic (quote (6700)) :ldur (quote (167)) :lvel (quote (80)) :loffset (quote (0)) :lchan (quote (1))))) (load-port-info thechord (quote (nil))) (init-mus-color thechord (quote nil)) (set-extra-pairs thechord (quote nil)) (set-tonalite thechord nil) thechord)))) :tempo (quote ((1/4 90) nil)) :legato 100 :ties (quote (nil nil nil nil nil nil nil nil nil nil nil nil nil nil nil nil nil nil nil nil nil nil)))))) (load-port-info newobj (quote nil)) (init-mus-color newobj (quote nil)) (set-extra-pairs newobj (quote nil)) (set-patch-pairs newobj (quote nil)) (set-name newobj nil) (set-tonalite newobj nil) newobj) (let ((newobj (when (find-class (quote voice) nil) (make-instance (quote voice) :tree (quote (8 (((4 4) ((1 (1 3)) (1 (3.0 1)) 2.0)) ((4 4) ((1 (3.0 1)) (1 (3.0 1)) 1.0 (1 (3.0 1)))) ((4 4) ((1 (3.0 1)) (1 (3.0 1)) 2.0)) ((4 4) ((1 (1.0 1)) 1.0 (1 (3.0 1)) 1)) ((4 4) (2.0 1 1)) ((4 4) (1.0 1 (1 (1.0 1)) 1.0)) ((4 4) (1.0 2 (1 (3 1)))) ((4 4) (2.0 1 (1 (1.0 -3))))))) :chords (load-obj-list-from-save (quote ((let ((thechord (make-instance (quote chord) :lmidic (quote (7000)) :ldur (quote (167)) :lvel (quote (80)) :loffset (quote (0)) :lchan (quote (1))))) (load-port-info thechord (quote (nil))) (init-mus-color thechord (quote nil)) (set-extra-pairs thechord (quote nil)) (set-tonalite thechord nil) thechord) (let ((thechord (make-instance (quote chord) :lmidic (quote (7300)) :ldur (quote (500)) :lvel (quote (80)) :loffset (quote (0)) :lchan (quote (1))))) (load-port-info thechord (quote (nil))) (init-mus-color thechord (quote nil)) (set-extra-pairs thechord (quote nil)) (set-tonalite thechord nil) thechord) (let ((thechord (make-instance (quote chord) :lmidic (quote (7400)) :ldur (quote (167)) :lvel (quote (80)) :loffset (quote (0)) :lchan (quote (1))))) (load-port-info thechord (quote (nil))) (init-mus-color thechord (quote nil)) (set-extra-pairs thechord (quote nil)) (set-tonalite thechord nil) thechord) (let ((thechord (make-instance (quote chord) :lmidic (quote (7200)) :ldur (quote (167)) :lvel (quote (80)) :loffset (quote (0)) :lchan (quote (1))))) (load-port-info thechord (quote (nil))) (init-mus-color thechord (quote nil)) (set-extra-pairs thechord (quote nil)) (set-tonalite thechord nil) thechord) (let ((thechord (make-instance (quote chord) :lmidic (quote (7500)) :ldur (quote (167)) :lvel (quote (80)) :loffset (quote (0)) :lchan (quote (1))))) (load-port-info thechord (quote (nil))) (init-mus-color thechord (quote nil)) (set-extra-pairs thechord (quote nil)) (set-tonalite thechord nil) thechord) (let ((thechord (make-instance (quote chord) :lmidic (quote (7600)) :ldur (quote (167)) :lvel (quote (80)) :loffset (quote (0)) :lchan (quote (1))))) (load-port-info thechord (quote (nil))) (init-mus-color thechord (quote nil)) (set-extra-pairs thechord (quote nil)) (set-tonalite thechord nil) thechord) (let ((thechord (make-instance (quote chord) :lmidic (quote (7800)) :ldur (quote (167)) :lvel (quote (80)) :loffset (quote (0)) :lchan (quote (1))))) (load-port-info thechord (quote (nil))) (init-mus-color thechord (quote nil)) (set-extra-pairs thechord (quote nil)) (set-tonalite thechord nil) thechord) (let ((thechord (make-instance (quote chord) :lmidic (quote (7500)) :ldur (quote (167)) :lvel (quote (80)) :loffset (quote (0)) :lchan (quote (1))))) (load-port-info thechord (quote (nil))) (init-mus-color thechord (quote nil)) (set-extra-pairs thechord (quote nil)) (set-tonalite thechord nil) thechord) (let ((thechord (make-instance (quote chord) :lmidic (quote (6400)) :ldur (quote (333)) :lvel (quote (80)) :loffset (quote (0)) :lchan (quote (1))))) (load-port-info thechord (quote (nil))) (init-mus-color thechord (quote nil)) (set-extra-pairs thechord (quote nil)) (set-tonalite thechord nil) thechord) (let ((thechord (make-instance (quote chord) :lmidic (quote (6400)) :ldur (quote (167)) :lvel (quote (80)) :loffset (quote (0)) :lchan (quote (1))))) (load-port-info thechord (quote (nil))) (init-mus-color thechord (quote nil)) (set-extra-pairs thechord (quote nil)) (set-tonalite thechord nil) thechord) (let ((thechord (make-instance (quote chord) :lmidic (quote (7100)) :ldur (quote (667)) :lvel (quote (80)) :loffset (quote (0)) :lchan (quote (1))))) (load-port-info thechord (quote (nil))) (init-mus-color thechord (quote nil)) (set-extra-pairs thechord (quote nil)) (set-tonalite thechord nil) thechord) (let ((thechord (make-instance (quote chord) :lmidic (quote (7800)) :ldur (quote (667)) :lvel (quote (80)) :loffset (quote (0)) :lchan (quote (1))))) (load-port-info thechord (quote (nil))) (init-mus-color thechord (quote nil)) (set-extra-pairs thechord (quote nil)) (set-tonalite thechord nil) thechord) (let ((thechord (make-instance (quote chord) :lmidic (quote (7000)) :ldur (quote (667)) :lvel (quote (80)) :loffset (quote (0)) :lchan (quote (1))))) (load-port-info thechord (quote (nil))) (init-mus-color thechord (quote nil)) (set-extra-pairs thechord (quote nil)) (set-tonalite thechord nil) thechord) (let ((thechord (make-instance (quote chord) :lmidic (quote (7600)) :ldur (quote (667)) :lvel (quote (80)) :loffset (quote (0)) :lchan (quote (1))))) (load-port-info thechord (quote (nil))) (init-mus-color thechord (quote nil)) (set-extra-pairs thechord (quote nil)) (set-tonalite thechord nil) thechord) (let ((thechord (make-instance (quote chord) :lmidic (quote (7500)) :ldur (quote (333)) :lvel (quote (80)) :loffset (quote (0)) :lchan (quote (1))))) (load-port-info thechord (quote (nil))) (init-mus-color thechord (quote nil)) (set-extra-pairs thechord (quote nil)) (set-tonalite thechord nil) thechord) (let ((thechord (make-instance (quote chord) :lmidic (quote (7800)) :ldur (quote (1333)) :lvel (quote (80)) :loffset (quote (0)) :lchan (quote (1))))) (load-port-info thechord (quote (nil))) (init-mus-color thechord (quote nil)) (set-extra-pairs thechord (quote nil)) (set-tonalite thechord nil) thechord) (let ((thechord (make-instance (quote chord) :lmidic (quote (6600)) :ldur (quote (500)) :lvel (quote (80)) :loffset (quote (0)) :lchan (quote (1))))) (load-port-info thechord (quote (nil))) (init-mus-color thechord (quote nil)) (set-extra-pairs thechord (quote nil)) (set-tonalite thechord nil) thechord) (let ((thechord (make-instance (quote chord) :lmidic (quote (7900)) :ldur (quote (167)) :lvel (quote (80)) :loffset (quote (0)) :lchan (quote (1))))) (load-port-info thechord (quote (nil))) (init-mus-color thechord (quote nil)) (set-extra-pairs thechord (quote nil)) (set-tonalite thechord nil) thechord) (let ((thechord (make-instance (quote chord) :lmidic (quote (7100)) :ldur (quote (667)) :lvel (quote (80)) :loffset (quote (0)) :lchan (quote (1))))) (load-port-info thechord (quote (nil))) (init-mus-color thechord (quote nil)) (set-extra-pairs thechord (quote nil)) (set-tonalite thechord nil) thechord)))) :tempo (quote ((1/4 90) nil)) :legato 100 :ties (quote (nil nil nil nil nil nil nil nil nil nil nil nil nil nil nil nil nil nil nil)))))) (load-port-info newobj (quote nil)) (init-mus-color newobj (quote nil)) (set-extra-pairs newobj (quote nil)) (set-patch-pairs newobj (quote nil)) (set-name newobj nil) (set-tonalite newobj nil) newobj)) :from-file t))) (load-port-info newobj (quote (nil nil))) (init-mus-color newobj (quote nil)) (set-extra-pairs newobj (quote nil)) (set-patch-pairs newobj (quote nil)) (set-name newobj nil) (set-tonalite newobj nil) newobj)) nil nil (pairlis (quote (scale show-stems cursor-mode obj-mode score-mode winpos winsize mode grillestep notechancolor? zoom player inport outport deltapict cmnpref staff fontsize approx)) (list nil (quote t) (quote :normal) 1 0 (om-make-point 400 23) (om-make-point 895 311) 0 1000 nil 1 (quote :midi-player) nil nil (om-make-point 0 0) (let ((newobj (make-instance (quote edition-values)))) (setf (paper-size newobj) (om-make-point 600 800)) (setf (top-margin newobj) 2) (setf (left-margin newobj) 1) (setf (right-margin newobj) 1) (setf (bottom-margin newobj) 1) (setf (orientation newobj) nil) (setf (scale newobj) nil) (setf (system-space newobj) (quote (2 2))) (setf (system-color newobj) (quote nil)) (setf (line-space newobj) 1) (setf (title newobj) nil) (setf (show-title? newobj) nil) (setf (show-page? newobj) nil) (setf (sheet-id newobj) nil) (setf (page-mode newobj) nil) newobj) (list (quote g) (quote g)) 24 2)) t nil nil nil))) (when (fboundp (quote set-active)) (set-active box nil)) box) (let ((box (om-load-boxcall (quote bastype) "aux 7" (quote t) (quote nil) (om-make-point 1078 178) (om-make-point 41 30) 100 "100" nil))) (when (fboundp (quote set-active)) (set-active box nil)) box) (let ((box (om-load-boxcall (quote bastype) "aux 6" (quote t) (quote nil) (om-make-point 1025 178) (om-make-point 48 30) 7900 "7900" nil))) (when (fboundp (quote set-active)) (set-active box nil)) box) (let ((box (om-load-boxcall (quote bastype) "aux 3" (quote t) (quote nil) (om-make-point 973 178) (om-make-point 48 30) 6000 "6000" nil))) (when (fboundp (quote set-active)) (set-active box nil)) box) (let ((box (om-load-boxcall (quote genfun) "CLUSTER-ENGINE" (quote cluster-engine::cluster-engine) (quote ((om-load-inputfun (quote input-funbox) "integer" "NO-OF-VARIABLES" 22) (om-load-inputfun (quote input-funbox) "t/nil" "RND?" (quote t)) (om-load-inputfun (quote input-funbox) "t/nil" "DEBUG?" nil) (om-load-inputfun (quote input-funbox) "t/nil" "RULES" nil) (om-load-inputfun (quote input-funbox) "number" "TEMPO" 90) (om-load-inputfunmenu1 (quote input-funmenu) "voices-or-list" "OUTPUT" (quote :voices) (list (list "voices" (quote :voices)) (list "list" (quote :list)))) (om-load-inputfun (quote input-funbox) "list-of-timsig" "METRIC-DOMAIN" (list (list 4 4))) (om-load-inputfun (quote input-funbox) "ratios" "RHYTHMDOMAIN0" (list (list 1/4))) (om-load-inputfun (quote input-funbox) "midics" "PITCHDOMAIN0" nil) (om-load-inputfun (quote input-funbox) "ratios" "RHYTHMDOMAIN1" nil) (om-load-inputfun (quote input-funbox) "midics" "PITCHDOMAIN1" nil))) (om-make-point 610 402) nil nil nil nil 1))) (when (fboundp (quote set-active)) (set-active box nil)) box) (let ((box (om-load-editor-box1 "CHORD-SEQ" (quote chord-seq) (quote ((om-load-inputfun (quote input-funbox) "object" "self" nil) (om-load-inputfun (quote input-funbox) "pitches (mc): list or list of lists" "lmidic" (list 6000)) (om-load-inputfun (quote input-funbox) "onsets (ms): list" "lonset" (list 0 1000)) (om-load-inputfun (quote input-funbox) "durations (ms): list or list of lists" "ldur" (list 1000)) (om-load-inputfun (quote input-funbox) "velocities (0-127): list or list of lists" "lvel" (list 100)) (om-load-inputfun (quote input-funbox) "offsets (ms): list or list of lists" "loffset" (list 0)) (om-load-inputfun (quote input-funbox) "MIDI channels (1-16): list or list of lists" "lchan" (list 1)) (om-load-inputfun (quote input-funbox) "relative chords duration (0-100)" "legato" 0))) (om-make-point 981 302) (om-make-point 130 70) (let ((newobj (when (find-class (quote chord-seq) nil) (make-instance (quote chord-seq) :lmidic (quote ((6000) (6100) (6200) (6300) (6400) (6500) (6600) (6700) (6800) (6900) (7000) (7100) (7200) (7300) (7400) (7500) (7600) (7700) (7800) (7900))) :lonset (quote (0 1000 2000 3000 4000 5000 6000 7000 8000 9000 10000 11000 12000 13000 14000 15000 16000 17000 18000 19000 20000)) :ldur (quote ((1000) (1000) (1000) (1000) (1000) (1000) (1000) (1000) (1000) (1000) (1000) (1000) (1000) (1000) (1000) (1000) (1000) (1000) (1000) (1000))) :lvel (quote ((100) (100) (100) (100) (100) (100) (100) (100) (100) (100) (100) (100) (100) (100) (100) (100) (100) (100) (100) (100))) :loffset (quote ((0) (0) (0) (0) (0) (0) (0) (0) (0) (0) (0) (0) (0) (0) (0) (0) (0) (0) (0) (0))) :lchan (quote ((1) (1) (1) (1) (1) (1) (1) (1) (1) (1) (1) (1) (1) (1) (1) (1) (1) (1) (1) (1))) :legato 0)))) (load-port-info newobj (quote ((0) (0) (0) (0) (0) (0) (0) (0) (0) (0) (0) (0) (0) (0) (0) (0) (0) (0) (0) (0)))) (init-mus-color newobj (quote nil)) (set-extra-pairs newobj (quote nil)) (set-patch-pairs newobj (quote nil)) (set-name newobj nil) (set-tonalite newobj nil) newobj) nil nil (pairlis (quote (scale show-stems cursor-mode obj-mode score-mode winpos winsize mode grillestep notechancolor? zoom player inport outport deltapict cmnpref staff fontsize approx)) (list nil (quote t) (quote :normal) 1 0 (om-make-point 400 20) (om-make-point 370 280) 0 1000 nil 1 (quote :osc-scoreplayer) nil nil (om-make-point 0 0) (let ((newobj (make-instance (quote edition-values)))) (setf (paper-size newobj) (om-make-point 600 800)) (setf (top-margin newobj) 2) (setf (left-margin newobj) 1) (setf (right-margin newobj) 1) (setf (bottom-margin newobj) 1) (setf (orientation newobj) nil) (setf (scale newobj) nil) (setf (system-space newobj) (quote (1))) (setf (system-color newobj) (quote nil)) (setf (line-space newobj) 1) (setf (title newobj) nil) (setf (show-title? newobj) nil) (setf (show-page? newobj) nil) (setf (sheet-id newobj) nil) (setf (page-mode newobj) nil) newobj) (quote g) 24 2)) nil nil nil nil))) (when (fboundp (quote set-active)) (set-active box nil)) box) (let ((box (om-load-boxcall (quote genfun) "ARITHM-SER" (quote arithm-ser) (quote ((om-load-inputfun (quote input-funbox) "begin" "BEGIN" 6000) (om-load-inputfun (quote input-funbox) "end " "END" 7900) (om-load-inputfun (quote input-funbox) "step" "STEP" 100))) (om-make-point 1015 225) nil nil nil nil 1))) (when (fboundp (quote set-active)) (set-active box nil)) box) (let ((box (om-load-boxcall (quote bastype) "list" (quote list) (quote nil) (om-make-point 853 253) (om-make-point 122 67) (list (list 1/16) (list 1/8) (list 3/16) (list 1/4) (list 5/16) (list 3/8) (list 7/16) (list 1/2) (list 9/16) (list 5/8) (list 11/16) (list 3/4)) "((1/16) (1/8) (3/16) (1/4) (5/16) (3/8) (7/16) (1/2) (9/16) (5/8) (11/16) (3/4))" nil))) (when (fboundp (quote set-active)) (set-active box nil)) box))) (quote ((4 0 2 0 nil 0) (0 0 2 1 nil 0) (1 0 2 2 nil 0) (5 0 3 0 nil 0) (3 0 4 0 nil 0) (8 0 6 0 nil 0) (9 0 7 0 nil 0) (14 0 7 1 nil 0) (13 0 7 2 nil 0) (6 0 9 0 nil 0) (15 0 9 1 nil 0) (2 0 10 0 nil 0) (7 0 10 1 nil 0) (11 0 10 2 nil 0) (12 0 11 0 nil 0) (21 0 17 1 nil 0) (10 0 21 3 nil 0) (24 0 21 7 nil 3) (22 1 21 8 nil 2) (24 0 21 9 nil 3) (22 1 21 10 nil 2) (23 0 22 1 nil 0) (20 0 23 0 nil 0) (19 0 23 1 nil 0) (18 0 23 2 nil 0))) nil 6.18))
